# xmcd
#
# Track frame offsets:
#	160
#	19912
#	39066
#	53526
#	69794
#	88302
#	104041
#	120502
#	139777
#	154758
#	169782
#	188208
#	207633
#	221324
#	238785
#	257004
#
# Disc length: 3641 seconds
#
# Revision: 3
# Processed by: cddbd v1.4PL0 Copyright (c) Steve Scherf et al.
# Submitted via: CDmax 2.0
#
DISCID=dc0e3710
DTITLE=Максидром 10 - Сборник
DYEAR=1900
DGENRE=Blues
TTITLE0=Ночные снайперы и Ден- Прощальная
TTITLE1=Вопли Видоплясова - Осень
TTITLE2=Чичерена - Блюдца
TTITLE3=Здоб шиз Здоб - Буне Диминяца
TTITLE4=Тотал - Адреналин
TTITLE5=7Б- Осень
TTITLE6=Бутусов и Звездный Падл - На лианах
TTITLE7=Океан Ельзы- Квитка
TTITLE8=Серьга и Кинчев - Любовь
TTITLE9=Буч- Чувство на волю
TTITLE10=Моральный Кодекс - Кошки
TTITLE11=Макс Леонидов - Позывные Весны
TTITLE12=Танцы Минус - Половинка
TTITLE13=Дмитрий Дибров - Ром Пепсикола
TTITLE14=Чайф - Не доводи до предела
TTITLE15=Земфира - Лондон
EXTD=гоняют поезда
EXTT0=
EXTT1=
EXTT2=
EXTT3=
EXTT4=
EXTT5=
EXTT6=
EXTT7=
EXTT8=
EXTT9=
EXTT10=
EXTT11=
EXTT12=
EXTT13=
EXTT14=
EXTT15=
PLAYORDER=
